<svg width="45" height="45" viewBox="0 0 45 45" fill="none" xmlns="http://www.w3.org/2000/svg">
<path d="M0.497849 18.199L11.6599 20.1686C12.9777 20.4145 14.331 20.3976 15.6422 20.1187C16.9535 19.8398 18.197 19.3045 19.3014 18.5433C20.4059 17.7822 21.3497 16.8102 22.0787 15.683C22.8077 14.5558 23.3077 13.2955 23.5499 11.9744L25.5154 0.789546C25.5188 0.723732 25.5363 0.659417 25.5666 0.600922C25.5969 0.542426 25.6393 0.491104 25.691 0.4504C25.7428 0.409696 25.8026 0.380543 25.8665 0.364918C25.9304 0.349293 25.9969 0.347547 26.0615 0.359798C26.1262 0.372049 26.1874 0.398015 26.2412 0.435949C26.295 0.473883 26.34 0.522911 26.3733 0.579736C26.4066 0.636562 26.4274 0.699868 26.4343 0.765412C26.4412 0.830955 26.434 0.897224 26.4132 0.95975L24.4477 12.1203C23.9821 14.796 24.5942 17.5475 26.1498 19.7718C27.7054 21.996 30.0776 23.5115 32.7465 23.986L43.8843 25.9555C43.9855 25.9793 44.0758 26.0366 44.1404 26.1183C44.2051 26.2 44.2402 26.3011 44.2402 26.4053C44.2402 26.5096 44.2051 26.6107 44.1404 26.6924C44.0758 26.7741 43.9855 26.8314 43.8843 26.8552C43.6173 26.8552 41.3121 26.4175 32.6494 24.8857C29.9856 24.419 27.2458 25.0297 25.0306 26.584C22.8154 28.1382 21.3057 30.5092 20.8322 33.1771L18.8667 44.3619C18.8315 44.468 18.759 44.5576 18.6628 44.6143C18.5666 44.6709 18.4532 44.6906 18.3436 44.6699C18.234 44.6491 18.1356 44.5892 18.0667 44.5013C17.9978 44.4133 17.963 44.3034 17.9689 44.1917L19.9344 33.0069C20.3996 30.334 19.7868 27.5855 18.2307 25.3651C16.6746 23.1448 14.3025 21.6342 11.6356 21.1655L0.497849 19.196C0.365921 19.196 0.239391 19.1434 0.146103 19.05C0.0528145 18.9565 0.000404358 18.8297 0.000404358 18.6975C0.000404358 18.5653 0.0528145 18.4385 0.146103 18.345C0.239391 18.2516 0.365921 18.199 0.497849 18.199ZM20.7837 29.8702C21.6276 28.1928 22.8788 26.7548 24.4221 25.6884C25.9655 24.622 27.7516 23.9613 29.6162 23.7672C27.9645 22.9369 26.5438 21.7096 25.481 20.1949C24.4181 18.6801 23.7464 16.9251 23.5257 15.0867C22.7007 16.7472 21.4731 18.1738 19.9555 19.2358C18.4378 20.2977 16.6785 20.9612 14.8387 21.1655C16.4786 22.0088 17.8857 23.2444 18.9354 24.7627C19.985 26.2811 20.6449 28.0354 20.8565 29.8702H20.7837Z" fill="#131315"/>
</svg>
