<svg width="19" height="19" viewBox="0 0 19 19" fill="none" xmlns="http://www.w3.org/2000/svg">
<path d="M0.641119 7.48364L5.1302 8.28603C6.13645 8.45608 7.16905 8.22232 8.00462 7.63532C8.84018 7.04832 9.41153 6.15527 9.59503 5.1494L10.3958 0.626821C10.4311 0.520764 10.5035 0.431118 10.5997 0.374497C10.6959 0.317877 10.8093 0.298125 10.9189 0.318905C11.0285 0.339686 11.1269 0.399586 11.1958 0.487504C11.2647 0.575423 11.2994 0.685391 11.2936 0.797025L10.4929 5.29529C10.3166 6.30443 10.5472 7.34243 11.1341 8.18129C11.721 9.02015 12.6162 9.59129 13.6231 9.76924L18.1122 10.5716C18.1791 10.5714 18.2453 10.5857 18.3062 10.6136C18.3671 10.6416 18.4211 10.6825 18.4646 10.7335C18.5081 10.7845 18.54 10.8444 18.5581 10.909C18.5762 10.9736 18.58 11.0413 18.5693 11.1076C18.5585 11.1738 18.5335 11.2369 18.496 11.2925C18.4585 11.348 18.4094 11.3948 18.352 11.4294C18.2947 11.464 18.2305 11.4857 18.1639 11.4929C18.0973 11.5001 18.03 11.4928 17.9666 11.4713L13.4532 10.6689C12.9437 10.564 12.4182 10.5641 11.9088 10.6692C11.3993 10.7742 10.9165 10.9821 10.4898 11.28C10.063 11.578 9.70123 11.9599 9.42643 12.4024C9.15164 12.845 8.96958 13.3389 8.89133 13.8542L8.09057 18.3767C8.05532 18.4828 7.98288 18.5724 7.88669 18.6291C7.7905 18.6857 7.67709 18.7054 7.56747 18.6847C7.45786 18.6639 7.35947 18.604 7.29057 18.5161C7.22167 18.4281 7.18693 18.3182 7.19277 18.2065L7.96926 13.684C8.05993 13.1871 8.0513 12.6772 7.9439 12.1838C7.83649 11.6903 7.63243 11.2231 7.34354 10.8092C7.05465 10.3954 6.68666 10.0431 6.26092 9.77271C5.83517 9.50237 5.36011 9.31936 4.86328 9.23431L0.349947 8.43192C0.224453 8.39323 0.119431 8.30617 0.0579967 8.18989C-0.00343704 8.07361 -0.0162544 7.93764 0.0223598 7.81189C0.0609722 7.68614 0.147858 7.58091 0.263899 7.51935C0.37994 7.45779 0.515625 7.44495 0.641119 7.48364ZM8.89133 11.7144C9.53088 10.8189 10.4548 10.1674 11.512 9.8665C10.6183 9.22565 9.96809 8.29981 9.66782 7.24049C9.02828 8.13603 8.10432 8.78755 7.04716 9.08843C7.94088 9.72928 8.59107 10.6551 8.89133 11.7144Z" fill="#131315"/>
</svg>
