<?xml version="1.0" encoding="utf-8"?>
<!-- Generator: Adobe Illustrator 22.1.0, SVG Export Plug-In . SVG Version: 6.00 Build 0)  -->
<svg version="1.1" id="Layer_1" xmlns="http://www.w3.org/2000/svg" xmlns:xlink="http://www.w3.org/1999/xlink" x="0px" y="0px"
	 viewBox="0 0 45 52" enable-background="new 0 0 45 52" xml:space="preserve">
<path fill="#FFFFFF" d="M39.265,44.858c-0.153,0.104-0.324,0.159-0.501,0.21c-0.234,0.067-0.512,0.043-0.736-0.046
	c-0.105-0.047-0.209-0.094-0.313-0.141c-0.107-0.087-0.211-0.174-0.316-0.263c-0.031-0.026-0.065-0.066-0.099-0.112
	c-0.063-0.046-0.125-0.097-0.188-0.152c-0.373-0.324-0.71-0.71-1.031-1.086c-0.898-1.051-1.73-2.154-2.59-3.237
	c-0.444-0.559-0.879-1.125-1.331-1.678c-0.221-0.269-0.45-0.531-0.68-0.792c-0.19-0.216-0.365-0.427-0.527-0.668
	c-0.098-0.144-0.157-0.299-0.231-0.455c-0.117-0.219-0.173-0.454-0.168-0.703c0.009-0.379,0.173-0.745,0.451-1.003
	c0.182-0.167,0.392-0.281,0.632-0.339c0.122-0.014,0.243-0.027,0.365-0.039c0.259,0.008,0.499,0.08,0.72,0.217
	c0.258,0.133,0.486,0.316,0.688,0.524c0.12,0.124,0.227,0.263,0.34,0.394c0.237,0.275,0.483,0.54,0.703,0.83
	c0.55,0.725,1.071,1.471,1.589,2.219c0.102,0.147,0.203,0.295,0.304,0.443c-0.013-0.079-0.026-0.157-0.038-0.236
	c-0.106-0.69-0.263-1.373-0.4-2.057c-0.066-0.328-0.173-0.653-0.258-0.977c-0.079-0.299-0.141-0.61-0.24-0.903
	c-0.228-0.668-0.454-1.337-0.682-2.005c-0.164-0.392-0.328-0.785-0.492-1.178c-0.12-0.287-0.24-0.574-0.36-0.861
	c-0.046-0.109-0.086-0.222-0.14-0.328c-0.252-0.498-0.505-0.996-0.757-1.495c-0.192-0.38-0.37-0.772-0.58-1.143
	c-0.51-0.909-1.022-1.818-1.533-2.727c-0.056-0.099-0.124-0.193-0.185-0.289c-0.184-0.287-0.369-0.574-0.554-0.861
	c-0.31-0.482-0.615-0.965-0.945-1.433c-0.747-1.032-1.543-2.022-2.403-2.964c-0.911-0.998-1.896-1.927-2.932-2.793
	c-0.46-0.375-0.932-0.735-1.413-1.085c-0.372-0.271-0.746-0.55-1.136-0.796c-0.396-0.25-0.792-0.5-1.189-0.75
	c-0.448-0.282-0.896-0.565-1.344-0.847c-0.24-0.151-0.493-0.281-0.741-0.419c-0.53-0.295-1.059-0.589-1.589-0.883
	c-0.218-0.121-0.433-0.247-0.657-0.355c-0.853-0.411-1.707-0.82-2.559-1.233c-2.403-1.032-4.901-1.849-7.484-2.289
	c-0.554-0.086-1.108-0.145-1.67-0.139C3.511,7.941,2.956,7.977,2.402,8.005C2.121,8.019,1.891,7.742,1.897,7.476
	c0.007-0.298,0.248-0.491,0.53-0.505C3.033,6.939,3.642,6.903,4.25,6.894c0.695-0.01,1.392,0.107,2.075,0.223
	c1.398,0.239,2.778,0.593,4.133,1.009c0.647,0.199,1.288,0.416,1.924,0.65c0.445,0.164,0.895,0.328,1.328,0.521
	c0.549,0.245,1.099,0.491,1.647,0.736c0.27,0.12,0.539,0.24,0.808,0.361c0.145,0.065,0.296,0.125,0.438,0.197
	c0.465,0.239,0.928,0.478,1.393,0.717c0.464,0.24,0.929,0.479,1.393,0.718c0.127,0.065,0.252,0.136,0.376,0.208
	c0.243,0.142,0.481,0.292,0.722,0.433l1.553,0.907c0.364,0.213,0.713,0.452,1.065,0.684c0.614,0.407,1.214,0.836,1.798,1.285
	c1.16,0.891,2.255,1.867,3.281,2.909c1.015,1.03,1.935,2.142,2.807,3.294c0.34,0.448,0.649,0.923,0.972,1.385
	c0.174,0.248,0.348,0.497,0.522,0.745c0.061,0.088,0.127,0.174,0.183,0.266c0.535,0.887,1.071,1.773,1.603,2.662
	c0.246,0.412,0.46,0.847,0.689,1.269c0.243,0.447,0.485,0.895,0.728,1.342c0.062,0.114,0.108,0.238,0.162,0.356
	c0.143,0.317,0.287,0.635,0.43,0.952c0.214,0.476,0.445,0.946,0.627,1.435c0.204,0.544,0.407,1.089,0.61,1.633
	c0.06,0.16,0.12,0.321,0.18,0.481c0.077,0.204,0.127,0.423,0.189,0.633c0.132,0.442,0.286,0.883,0.389,1.334
	c0.125,0.549,0.25,1.098,0.376,1.647c0.104,0.454,0.168,0.919,0.252,1.377c0.036,0.194,0.067,0.391,0.095,0.587
	c0.147-0.346,0.291-0.694,0.427-1.045c0.276-0.711,0.534-1.43,0.785-2.151c0.107-0.307,0.218-0.612,0.328-0.919
	c0.19-0.531,0.392-1.074,0.659-1.571c0.163-0.304,0.546-0.481,0.88-0.473c0.186,0.005,0.358,0.057,0.515,0.155
	c0.151,0.096,0.268,0.222,0.353,0.378c0.216,0.337,0.164,0.691,0.103,1.06c-0.017,0.104-0.031,0.208-0.053,0.311
	c-0.055,0.261-0.115,0.521-0.179,0.781c-0.106,0.434-0.23,0.866-0.361,1.293c-0.279,0.91-0.556,1.824-0.888,2.716
	c-0.395,1.063-0.801,2.119-1.286,3.144c-0.128,0.271-0.27,0.531-0.441,0.778C39.675,44.552,39.506,44.694,39.265,44.858"/>
<g>
</g>
<g>
</g>
<g>
</g>
<g>
</g>
<g>
</g>
<g>
</g>
<g>
</g>
<g>
</g>
<g>
</g>
<g>
</g>
<g>
</g>
<g>
</g>
<g>
</g>
<g>
</g>
<g>
</g>
</svg>
